# xmcd CD database file
#
# Track frame offsets:
#	150
#	20715
#	42785
#
# Disc length: 844 seconds
#
# Revision: 0
# Processed by: cddbd v1.5.1PL0 Copyright (c) Steve Scherf et al.
# Submitted via: CDex 1.51
#
DISCID=1d034a03
DTITLE=中島みゆき - 時代／最後の女神
DYEAR=1994
DGENRE=JPop
TTITLE0=時代
TTITLE1=最後の女神
TTITLE2=時代 <TV MIX>
EXTD=YEAR: 1994
EXTT0=
EXTT1=
EXTT2=
PLAYORDER=
